<?xml version="1.0" encoding="UTF-8"?>
<svg id="Layer_1" data-name="Layer 1" xmlns="http://www.w3.org/2000/svg" viewBox="0 0 64 64">
  <defs>
    <style>
      .cls-1 {
        fill: #a07555;
      }

      .cls-1, .cls-2 {
        stroke-width: 0px;
      }

      .cls-2 {
        fill: #fff;
      }
    </style>
  </defs>
  <rect class="cls-1" width="64" height="64"/>
  <g>
    <path class="cls-2" d="M24.92,40.78c-.06.12-.15.23-.25.33l-4.37,4.49c.27.33.56.64.88.95.98.93,2.07,1.62,3.26,2.09,1.19.46,2.5.7,3.93.7h20.13v-14.36h-13.51v4.48c0,.84-.68,1.52-1.52,1.52s-1.52-.68-1.52-1.52v-6c0-.84.68-1.52,1.52-1.52h16.55c.84,0,1.52.68,1.52,1.52v17.39c0,.84-.68,1.52-1.52,1.52h-21.65c-1.79,0-3.47-.3-5.02-.91-1.55-.6-2.97-1.51-4.24-2.71-.33-.31-.64-.63-.93-.97l-7.51,7.71c-.58.6-1.54.61-2.14.03-.31-.3-.46-.69-.46-1.08v-27.86c0-2.58.48-5.03,1.44-7.29.94-2.23,2.35-4.25,4.22-6.03,1.82-1.72,3.86-3.02,6.06-3.88,2.24-.88,4.64-1.32,7.15-1.32h27.46c.84,0,1.52.68,1.52,1.52,0,.46-.21.88-.53,1.16l-13.84,13.83c-.28.35-.71.57-1.19.57h-13.42c-.72,0-1.22.12-1.48.35-.21.19-.32.56-.32,1.09v13.39c0,.3-.09.57-.23.81h0ZM39.74,22.1l11.01-11.01h-23.8c-2.15,0-4.18.37-6.05,1.1-1.86.73-3.56,1.81-5.09,3.25-1.55,1.47-2.73,3.16-3.51,5.01-.79,1.87-1.19,3.92-1.19,6.11v24.13l5.37-5.51c-.09-.19-.18-.38-.26-.57-.65-1.54-.97-3.21-.97-5.01v-15.8c0-.84.68-1.52,1.52-1.52s1.52.68,1.52,1.52v15.8c0,1.17.16,2.24.49,3.23l3.34-3.43v-12.82c0-1.43.45-2.55,1.34-3.34.85-.75,2.01-1.13,3.49-1.13h12.79,0Z"/>
    <path class="cls-2" d="M9.59,56.01c-.42,0-.81-.16-1.11-.45-.31-.3-.48-.7-.48-1.14v-27.86c0-2.59.48-5.05,1.44-7.32.95-2.25,2.38-4.29,4.24-6.05,1.81-1.71,3.86-3.02,6.08-3.9,2.23-.88,4.65-1.32,7.18-1.32h27.46c.88,0,1.59.71,1.59,1.59,0,.47-.2.91-.56,1.21l-13.83,13.83c-.3.38-.75.59-1.24.59h-13.42c-.7,0-1.18.11-1.43.33-.2.18-.3.52-.3,1.04v13.39c0,.29-.08.58-.24.83h0c-.07.14-.15.26-.26.36l-4.33,4.44c.25.31.54.61.84.89.97.92,2.06,1.61,3.23,2.07,1.17.46,2.49.69,3.9.69h20.06v-14.22h-13.37v4.41c0,.88-.71,1.59-1.59,1.59s-1.59-.71-1.59-1.59v-6c0-.88.71-1.59,1.59-1.59h16.55c.88,0,1.59.71,1.59,1.59v17.39c0,.88-.71,1.59-1.59,1.59h-21.65c-1.79,0-3.49-.31-5.05-.91-1.56-.61-2.99-1.52-4.26-2.73-.31-.29-.61-.6-.88-.91l-7.46,7.66c-.29.3-.69.47-1.11.48,0,0-.01,0-.02,0ZM26.95,8.13c-2.51,0-4.91.44-7.13,1.31-2.21.86-4.24,2.17-6.04,3.87-1.85,1.75-3.26,3.77-4.21,6-.95,2.24-1.44,4.69-1.44,7.26v27.86c0,.39.16.76.44,1.03.28.27.64.41,1.03.41.39,0,.75-.16,1.01-.44l7.56-7.77.05.06c.28.33.59.65.92.96,1.26,1.19,2.68,2.1,4.22,2.7,1.54.6,3.22.9,4.99.9h21.65c.8,0,1.45-.65,1.45-1.45v-17.39c0-.8-.65-1.45-1.45-1.45h-16.55c-.8,0-1.45.65-1.45,1.45v6c0,.8.65,1.45,1.45,1.45s1.45-.65,1.45-1.45v-4.55h13.66v14.5h-20.2c-1.43,0-2.77-.24-3.96-.7-1.19-.46-2.3-1.17-3.28-2.1-.32-.3-.62-.62-.89-.95l-.04-.05,4.42-4.53c.09-.09.16-.19.23-.3h0s.01-.02.01-.02c.15-.23.22-.5.22-.77v-13.39c0-.55.12-.94.35-1.14.27-.24.79-.37,1.52-.37h13.42c.44,0,.86-.2,1.13-.55l13.84-13.84c.33-.28.51-.68.51-1.11,0-.8-.65-1.45-1.45-1.45h-27.46ZM11.04,50.88v-24.31c0-2.2.4-4.27,1.2-6.14.8-1.88,1.98-3.57,3.53-5.04,1.51-1.43,3.23-2.53,5.11-3.27,1.87-.73,3.92-1.11,6.08-1.11h23.97l-11.13,11.13-.05-.05v.07h-12.79c-1.46,0-2.62.38-3.44,1.12-.88.78-1.32,1.89-1.32,3.29v12.85l-.02.02-3.43,3.52-.04-.11c-.33-.98-.5-2.08-.5-3.25v-15.8c0-.8-.65-1.45-1.45-1.45s-1.45.65-1.45,1.45v15.8c0,1.78.33,3.46.97,4.99.08.18.16.37.26.57l.02.04-5.52,5.67ZM26.95,11.17c-2.14,0-4.17.37-6.03,1.1-1.86.73-3.56,1.82-5.06,3.24-1.53,1.45-2.71,3.13-3.5,4.99-.79,1.85-1.19,3.9-1.19,6.08v23.96l5.21-5.35c-.09-.18-.17-.36-.24-.53-.65-1.54-.98-3.24-.98-5.04v-15.8c0-.88.71-1.59,1.59-1.59s1.59.71,1.59,1.59v15.8c0,1.11.15,2.15.45,3.09l3.24-3.33v-12.79c0-1.44.46-2.59,1.37-3.4.86-.76,2.05-1.15,3.54-1.15h12.76l10.87-10.87h-23.63Z"/>
  </g>
</svg>