<?xml version="1.0" encoding="UTF-8"?>
<svg id="Layer_1" data-name="Layer 1" xmlns="http://www.w3.org/2000/svg" viewBox="0 0 128 128">
  <defs>
    <style>
      .cls-1 {
        fill: #fff;
        stroke-width: 0px;
      }
    </style>
  </defs>
  <path class="cls-1" d="M53.39,82.6c-.12.22-.27.43-.46.63l-8.19,8.41c.5.62,1.05,1.2,1.65,1.77,1.83,1.74,3.87,3.04,6.1,3.91,2.23.87,4.68,1.3,7.36,1.3h37.72v-26.91h-25.32v8.39c0,1.57-1.27,2.85-2.85,2.85s-2.85-1.27-2.85-2.85v-11.24c0-1.57,1.27-2.85,2.85-2.85h31.01c1.57,0,2.84,1.27,2.84,2.85v32.6c0,1.57-1.27,2.84-2.84,2.84h-40.57c-3.36,0-6.5-.57-9.41-1.7-2.91-1.13-5.56-2.83-7.94-5.09-.62-.58-1.2-1.19-1.73-1.81l-14.07,14.45c-1.09,1.12-2.89,1.14-4.01.05-.57-.55-.86-1.29-.86-2.03v-52.21c0-4.83.89-9.42,2.69-13.66,1.77-4.17,4.41-7.97,7.92-11.29,3.42-3.23,7.23-5.66,11.36-7.27,4.19-1.64,8.69-2.47,13.41-2.47h51.46c1.57,0,2.84,1.27,2.84,2.85,0,.87-.39,1.64-1,2.16l-25.93,25.92c-.52.66-1.33,1.08-2.23,1.08h-25.15c-1.35,0-2.28.22-2.77.66-.4.36-.6,1.04-.6,2.04v25.09c0,.55-.16,1.08-.44,1.52h0ZM81.16,47.61l20.63-20.63h-44.6c-4.02,0-7.83.69-11.34,2.06-3.48,1.36-6.68,3.4-9.53,6.1-2.91,2.75-5.11,5.92-6.58,9.39-1.49,3.5-2.23,7.35-2.23,11.45v45.22l10.05-10.32c-.17-.35-.33-.71-.49-1.07-1.21-2.88-1.82-6.02-1.82-9.39v-29.61c0-1.57,1.27-2.84,2.85-2.84s2.84,1.27,2.84,2.84v29.61c0,2.19.31,4.2.92,6.04l6.27-6.43v-24.02c0-2.68.84-4.77,2.52-6.26,1.58-1.41,3.77-2.12,6.54-2.12h23.97,0Z"/>
  <path class="cls-1" d="M24.66,111.15c-.78,0-1.51-.3-2.07-.84-.58-.56-.9-1.32-.9-2.13v-52.21c0-4.86.9-9.47,2.7-13.71,1.78-4.22,4.46-8.03,7.95-11.34,3.4-3.21,7.23-5.67,11.4-7.3,4.19-1.64,8.71-2.48,13.46-2.48h51.46c1.64,0,2.98,1.34,2.98,2.98,0,.87-.38,1.7-1.05,2.27l-25.92,25.91c-.56.7-1.41,1.11-2.32,1.11h-25.15c-1.31,0-2.21.21-2.68.62-.37.33-.56.98-.56,1.94v25.09c0,.55-.15,1.09-.44,1.56v.03c-.14.24-.3.46-.49.66l-8.11,8.33c.48.58,1,1.14,1.57,1.67,1.81,1.72,3.85,3.02,6.06,3.88,2.2.86,4.66,1.29,7.31,1.29h37.59v-26.64h-25.06v8.26c0,1.64-1.34,2.98-2.98,2.98s-2.98-1.34-2.98-2.98v-11.24c0-1.64,1.34-2.98,2.98-2.98h31.01c1.64,0,2.98,1.34,2.98,2.98v32.6c0,1.64-1.34,2.98-2.98,2.98h-40.57c-3.36,0-6.54-.58-9.46-1.71-2.92-1.14-5.6-2.86-7.99-5.11-.58-.55-1.14-1.12-1.65-1.71l-13.97,14.35c-.55.57-1.29.89-2.09.9-.01,0-.03,0-.04,0ZM57.2,21.42c-4.71,0-9.2.83-13.36,2.46-4.14,1.62-7.94,4.06-11.31,7.24-3.46,3.28-6.12,7.07-7.88,11.25-1.78,4.21-2.69,8.78-2.69,13.61v52.21c0,.74.3,1.43.82,1.94.52.5,1.2.77,1.92.76.72,0,1.4-.3,1.9-.82l14.17-14.55.09.11c.53.62,1.11,1.22,1.72,1.8,2.36,2.23,5.02,3.93,7.9,5.06,2.89,1.12,6.03,1.69,9.36,1.69h40.57c1.49,0,2.71-1.22,2.71-2.71v-32.6c0-1.5-1.22-2.71-2.71-2.71h-31.01c-1.5,0-2.71,1.22-2.71,2.71v11.24c0,1.5,1.22,2.71,2.71,2.71s2.71-1.22,2.71-2.71v-8.53h25.59v27.17h-37.86c-2.69,0-5.18-.44-7.41-1.31-2.24-.87-4.3-2.19-6.14-3.93-.6-.57-1.16-1.17-1.66-1.79l-.08-.09,8.27-8.5c.17-.17.31-.36.42-.57h0s.02-.05.02-.05c.27-.43.42-.93.42-1.44v-25.09c0-1.04.22-1.76.65-2.14.51-.46,1.47-.69,2.85-.69h25.15c.83,0,1.61-.37,2.12-1.02l25.94-25.93c.61-.52.96-1.27.96-2.07,0-1.5-1.22-2.71-2.71-2.71h-51.46ZM27.37,101.53v-45.55c0-4.13.75-8,2.24-11.5,1.49-3.52,3.72-6.69,6.61-9.44,2.84-2.68,6.06-4.74,9.58-6.12,3.51-1.38,7.34-2.07,11.39-2.07h44.92l-20.86,20.86-.09-.09v.13h-23.97c-2.73,0-4.9.7-6.46,2.09-1.64,1.46-2.47,3.54-2.47,6.17v24.07l-.04.04-6.42,6.59-.07-.21c-.62-1.85-.93-3.89-.93-6.09v-29.61c0-1.49-1.22-2.71-2.71-2.71s-2.71,1.22-2.71,2.71v29.61c0,3.34.61,6.49,1.81,9.34.14.34.31.7.48,1.07l.04.08-10.35,10.63ZM57.19,27.11c-4.02,0-7.81.69-11.29,2.06-3.48,1.37-6.68,3.41-9.49,6.07-2.87,2.72-5.07,5.86-6.55,9.35-1.47,3.47-2.22,7.3-2.22,11.39v44.89l9.76-10.02c-.16-.34-.31-.67-.45-.99-1.22-2.89-1.83-6.07-1.83-9.44v-29.61c0-1.64,1.34-2.98,2.98-2.98s2.98,1.34,2.98,2.98v29.61c0,2.08.29,4.03.85,5.79l6.08-6.24v-23.96c0-2.71.86-4.85,2.56-6.36,1.6-1.43,3.84-2.16,6.63-2.16h23.91l20.37-20.36h-44.28Z"/>
</svg>