<?xml version="1.0" encoding="UTF-8"?>
<svg id="Layer_1" data-name="Layer 1" xmlns="http://www.w3.org/2000/svg" xmlns:xlink="http://www.w3.org/1999/xlink" viewBox="0 0 1377.33 375.33">
  <defs>
    <style>
      .cls-1 {
        font-size: 132.5px;
      }

      .cls-2 {
        fill: url(#linear-gradient);
      }

      .cls-2, .cls-3 {
        stroke-width: 0px;
      }

      .cls-4 {
        letter-spacing: 0em;
      }

      .cls-5 {
        letter-spacing: -.17em;
      }

      .cls-6 {
        letter-spacing: 0em;
      }

      .cls-7 {
        letter-spacing: 0em;
      }

      .cls-8 {
        fill: #a07555;
        font-family: RocGroteskVariable-WideMedium, 'Roc Grotesk Variable';
        font-variation-settings: 'wdth' 125, 'wght' 500;
        font-weight: 500;
      }

      .cls-9 {
        letter-spacing: -.03em;
      }

      .cls-3 {
        fill: url(#New_Gradient_Swatch);
      }

      .cls-10 {
        font-size: 104.83px;
      }
    </style>
    <linearGradient id="New_Gradient_Swatch" data-name="New Gradient Swatch" x1="40962.31" y1="-11395.63" x2="37220.51" y2="-11395.31" gradientTransform="translate(-2445.45 -573.4) scale(.07 -.07)" gradientUnits="userSpaceOnUse">
      <stop offset="0" stop-color="#a07555"/>
      <stop offset="1" stop-color="#ffd79f"/>
    </linearGradient>
    <linearGradient id="linear-gradient" x1="28.74" y1="194.65" x2="366.35" y2="194.65" gradientUnits="userSpaceOnUse">
      <stop offset="0" stop-color="#fff"/>
      <stop offset="1" stop-color="#000"/>
    </linearGradient>
  </defs>
  <text class="cls-8" transform="translate(446.54 160.5)"><tspan class="cls-1"><tspan class="cls-4" x="0" y="0">GR</tspan><tspan class="cls-5" x="231.6" y="0">A</tspan><tspan class="cls-6" x="338.26" y="0">TITUDE</tspan></tspan><tspan class="cls-10"><tspan class="cls-9" x="2.16" y="125.8">F</tspan><tspan class="cls-7" x="71.56" y="125.8">OODSE</tspan><tspan class="cls-9" x="521.07" y="125.8">R</tspan><tspan x="606.72" y="125.8">VICE</tspan></tspan></text>
  <g>
    <path class="cls-3" d="M147.73,256.39c-.45.84-1.03,1.63-1.73,2.35l-30.75,31.58c1.89,2.31,3.95,4.52,6.21,6.66,6.89,6.52,14.54,11.42,22.9,14.67,8.35,3.26,17.58,4.89,27.64,4.89h141.6v-100.99h-95.06v31.5c0,5.89-4.78,10.68-10.68,10.68s-10.68-4.78-10.68-10.68v-42.19c0-5.89,4.78-10.68,10.68-10.68h116.41c5.89,0,10.67,4.78,10.67,10.68v122.35c0,5.89-4.78,10.67-10.67,10.67h-152.29c-12.6,0-24.39-2.14-35.31-6.39-10.91-4.25-20.87-10.62-29.82-19.09-2.32-2.19-4.49-4.46-6.51-6.8l-52.82,54.24c-4.09,4.21-10.85,4.3-15.05.2-2.15-2.08-3.22-4.86-3.22-7.63l-.03-195.97c0-18.13,3.39-35.37,10.13-51.26,6.63-15.67,16.56-29.93,29.71-42.39,12.82-12.12,27.14-21.23,42.63-27.29,15.73-6.17,32.63-9.26,50.32-9.26h193.14c5.89,0,10.67,4.78,10.67,10.68,0,3.26-1.46,6.17-3.76,8.13l-97.32,97.29c-1.95,2.46-4.98,4.04-8.36,4.04h-94.39c-5.07,0-8.55.83-10.38,2.47-1.51,1.34-2.27,3.91-2.27,7.66v94.16c0,2.08-.6,4.04-1.64,5.69v.03ZM251.98,125.06l77.44-77.43h-167.41c-15.1,0-29.39,2.58-42.56,7.75-13.05,5.12-25.07,12.75-35.79,22.88-10.92,10.34-19.18,22.21-24.7,35.25-5.58,13.13-8.37,27.58-8.37,42.96v169.74l37.74-38.75c-.64-1.32-1.25-2.67-1.82-4.03-4.55-10.81-6.84-22.59-6.84-35.26v-111.15c0-5.89,4.78-10.67,10.68-10.67s10.67,4.78,10.67,10.67v111.15c0,8.2,1.15,15.78,3.46,22.68l23.53-24.15v-90.15c0-10.05,3.16-17.9,9.45-23.52,5.95-5.31,14.15-7.98,24.56-7.98h89.96-.01Z"/>
    <path class="cls-2" d="M39.91,363.56c-2.92,0-5.68-1.12-7.77-3.15-2.17-2.11-3.37-4.94-3.37-7.99l-.03-195.97c0-18.24,3.42-35.55,10.17-51.46,6.69-15.83,16.73-30.15,29.83-42.56,12.75-12.05,27.15-21.27,42.79-27.4,15.72-6.17,32.71-9.29,50.5-9.29h193.14c6.16,0,11.17,5.02,11.17,11.18,0,3.28-1.43,6.38-3.93,8.51l-97.29,97.26c-2.09,2.64-5.28,4.18-8.72,4.18h-94.39c-4.93,0-8.31.79-10.05,2.34-1.39,1.23-2.1,3.69-2.1,7.29v94.16c0,2.07-.57,4.09-1.66,5.86l-.04.1c-.48.89-1.09,1.72-1.81,2.46l-30.43,31.26c1.79,2.16,3.77,4.27,5.88,6.27,6.81,6.45,14.46,11.35,22.74,14.56,8.26,3.22,17.49,4.86,27.46,4.86h141.1v-99.99h-94.06v31c0,6.17-5.02,11.18-11.18,11.18s-11.18-5.02-11.18-11.18v-42.19c0-6.17,5.02-11.18,11.18-11.18h116.41c6.16,0,11.17,5.02,11.17,11.18v122.35c0,6.16-5.01,11.17-11.17,11.17h-152.29c-12.6,0-24.55-2.16-35.49-6.42-10.95-4.27-21.04-10.73-29.98-19.19-2.18-2.06-4.26-4.22-6.19-6.42l-52.44,53.85c-2.07,2.13-4.85,3.33-7.83,3.37-.05,0-.1,0-.15,0ZM162.03,26.74c-17.67,0-34.54,3.1-50.14,9.22-15.52,6.08-29.81,15.23-42.47,27.19-13,12.31-22.95,26.52-29.59,42.22-6.7,15.79-10.09,32.97-10.09,51.07l.03,195.97c0,2.77,1.09,5.35,3.06,7.27,1.94,1.89,4.49,2.9,7.22,2.87,2.71-.04,5.25-1.12,7.13-3.06l53.2-54.63.36.41c2,2.32,4.18,4.59,6.47,6.76,8.85,8.38,18.83,14.77,29.66,18.99,10.83,4.22,22.65,6.35,35.13,6.35h152.29c5.61,0,10.17-4.56,10.17-10.17v-122.35c0-5.62-4.56-10.18-10.17-10.18h-116.41c-5.62,0-10.18,4.57-10.18,10.18v42.19c0,5.62,4.57,10.18,10.18,10.18s10.18-4.57,10.18-10.18v-32h96.06v101.99h-142.1c-10.09,0-19.45-1.66-27.82-4.92-8.4-3.26-16.16-8.23-23.06-14.77-2.25-2.14-4.36-4.39-6.25-6.71l-.28-.35,31.06-31.9c.62-.64,1.16-1.36,1.58-2.13v-.05s.08-.12.08-.12c1.02-1.63,1.56-3.51,1.56-5.42v-94.16c0-3.9.82-6.61,2.43-8.04,1.93-1.72,5.53-2.6,10.71-2.6h94.39c3.13,0,6.03-1.4,7.97-3.85l97.36-97.33c2.3-1.96,3.61-4.78,3.61-7.77,0-5.62-4.56-10.18-10.17-10.18h-193.14ZM50.1,327.43v-170.97c0-15.5,2.83-30.02,8.41-43.16,5.6-13.21,13.95-25.12,24.82-35.41,10.65-10.07,22.75-17.81,35.95-22.98,13.17-5.16,27.55-7.78,42.75-7.78h168.61l-78.3,78.29-.34-.34v.49h-89.96c-10.25,0-18.4,2.64-24.23,7.85-6.16,5.5-9.29,13.28-9.29,23.14v90.35l-.14.15-24.1,24.74-.26-.78c-2.32-6.93-3.49-14.61-3.49-22.84v-111.15c0-5.61-4.56-10.17-10.17-10.17s-10.18,4.56-10.18,10.17v111.15c0,12.55,2.29,24.34,6.8,35.06.54,1.29,1.15,2.63,1.81,4l.15.32-38.84,39.89ZM162.02,48.12c-15.07,0-29.33,2.6-42.38,7.71-13.08,5.13-25.07,12.79-35.62,22.78-10.77,10.19-19.04,22-24.59,35.08-5.53,13.02-8.33,27.41-8.33,42.77v168.51l36.64-37.62c-.61-1.28-1.18-2.53-1.68-3.73-4.57-10.84-6.88-22.77-6.88-35.45v-111.15c0-6.16,5.02-11.17,11.18-11.17s11.17,5.01,11.17,11.17v111.15c0,7.81,1.07,15.12,3.18,21.74l22.81-23.41v-89.94c0-10.16,3.24-18.2,9.62-23.89,6.02-5.38,14.4-8.1,24.9-8.1h89.74l76.44-76.43h-166.2Z"/>
  </g>
</svg>